<svg xmlns="http://www.w3.org/2000/svg" viewBox="0 0 323.89 218.44"><g id="a96eec0c-d86b-4e1f-84db-a95a0d919815" data-name="Layer 002 Image"><path d="M143,254c-15.3-6-26-16.49-27.66-33.19-3.68-42.09,7.65-84.53,21.91-123.73,15.39,7.26,2.28,35.28,1.35,48.39-2.14,13.55-27.85,109.83,4.9,94.31,10.43-5.11,14-16.89,18.67-26.68a8.9,8.9,0,0,0,.33-4.82c-1.52-5.67.78-37.69,11-29.19,14.19,8.66,7.26,25.37,3.62,38.12-3.82,9,4.92,15,12.25,10.63,5.22-3.83,10.68-8.42,13.65-14,18.32-38.24,18.72-82.48,27.45-123.54,6.06.74,10.16,5.26,9.49,10.67-4.27,34.52-8.66,69-17.12,102.84-6.23,26.24-25,55-50.19,25.75C167.22,242.27,159,255.8,143,254Z" transform="translate(-13.71 -78.48)"/><path d="M277.14,78.48C284.92,80.06,291.58,87,291,94c-1.23,13.89-2.82,27.78-5,41.54-6.64,37.1-10.4,74.49-22.17,110.52-5.28-1.83-7.35-4.5-6.9-8.94C260.58,183.86,271,131.43,277.14,78.48Z" transform="translate(-13.71 -78.48)"/></g><g id="b01ece2c-0d23-4484-82cb-2abd5abd3be9" data-name="Layer 003 Image"><path d="M63.58,195.76c-13-11-20.13-29.07-2.82-40.74,15.78-13.74,43.52,9,26.94,15.38-2.5,1.16-3.67-.6-5.06-2-3-2.13-.81-4.33,1-6.51-10.34-5-25.73,11.85-22.75,22.11,1.74,7.49,6.23,10.49,13.76,9,10.51-2,20.85-2.87,30.26,3.76,9.93,5.89,9.23,12.44-3,11a45.88,45.88,0,0,1-16.34-1.59c-16.28-2.3-33.91,8.38-46.44,18.12-15.18,12-22.2,40.83-1.1,50.75C113.66,308,352.11,276.33,324.27,158.8c-24.24-49-149.88-50.07-193.49-28.22-32.19,16.34,9.05,22.73,23.75,26.38,7.6,3,19.88,1.25,24.56,8.58-16.92,3.76-40.3-3-55.34-11.35-26.21-17.37-18.15-31.47,8.69-39.72C193.92,94.69,348.39,104.4,337,196,312.18,285.64,178.39,298.37,100.13,296.8,72,295.24,39.41,290.47,21.54,266-2.14,233.31,32.56,203.31,63.58,195.76Z" transform="translate(-13.71 -78.48)"/><path d="M84,127.77c-4,4.73-9.65,8.35-14.18,12.69-3.66,3.23-5.67.12-7.88-2-2.51-2.36-2.13-4.67.56-6.65C68.61,127.89,80.11,114.88,84,127.77Z" transform="translate(-13.71 -78.48)"/></g></svg>