<?xml version="1.0" encoding="utf-8"?>
<!-- Generator: Adobe Illustrator 26.2.1, SVG Export Plug-In . SVG Version: 6.00 Build 0)  -->
<svg version="1.1" id="Layer_1" xmlns="http://www.w3.org/2000/svg" xmlns:xlink="http://www.w3.org/1999/xlink" x="0px" y="0px"
	 viewBox="0 0 418.2 480" enable-background="new 0 0 418.2 480" xml:space="preserve">
<defs>
	<path id="SVGID_1_" d="M341.8,0l-14.5,25.5h36.4l-67.3,67.3c-51.5-39.5-123.1-39.5-174.5,0l-18.2-18.2l25.5-25.5l-21.8-21.8
		L81.8,52.7L54.5,25.5h36.4L76.4,0H0v76.4l25.5,14.5V53.8l27.3,27.3l-25.5,25.5l21.8,21.8l25.5-25.5l18.2,18.2
		c-46.9,63.8-33.1,153.8,30.9,200.7c19.3,14.2,41.8,23.3,65.5,26.5v40.7H140v41.8h49.1V480h41.8v-49.1H280v-41.8h-49.1v-40
		c78.5-11.6,132.5-84.7,120.9-163.1c-3.5-23.3-12.5-45.3-26.4-64.2l67.3-67.3v36.4l25.5-14.5V0H341.8z M230.9,308.4v-34.9
		c29.3-12.9,49.3-34.7,49.3-55.6c0-10-7.5-19.3-20-19.3c-10.5,0-16.7,2.9-27.3,2.9c-20.9,0-17.6-10-22.2-10s-9.3,5.5-9.3,13.8
		c0,12.5,10.5,18.9,20.9,18.9c6.2,0,8.4-2.5,12.2-2.5c2.5,0,3.8,0.4,3.8,1.6c0,2-4.5,5.8-10.4,5.8c-20.9,0-23.5-14.2-49.3-14.2
		c-15.8,0-26,10-26,26.4c0,20.5,13.5,29.3,36.4,32.2v34.4c-51.1-11.1-88.4-59.6-80.9-115.6c6.2-46.9,44-83.8,90.9-89.1
		c62.7-7.1,115.8,41.8,115.8,103.3C314.9,257.1,278.7,299.3,230.9,308.4z M200.5,134.5c-8.4,0-24.2,10.4-24.2,20.9
		c0,20.9,4.2,41.6,14.5,41.6c11.3,0,16.7-39.6,16.7-51.3C207.6,140,205.3,134.5,200.5,134.5z M166,156.2c-8.4,0-18.7,6.7-18.7,15.8
		c0,17.5,8.4,39.6,20.9,39.6c4.5,0,6.7-3.3,6.7-14.5C174.7,178.4,172.2,156.2,166,156.2z M253.6,144.5c-6.2,0-10.4,35.1-10.4,39.3
		c0,6.2,6.2,13.8,12.5,13.8c4.5,0,14.2-22.9,14.2-31.3C269.8,157.8,259.8,144.5,253.6,144.5z M220.7,132.4c-8,0-10.4,20.9-10.4,41.6
		c0,8.4,3.8,19.3,14.2,19.3c10.4,0,18.4-23.3,18.4-45.5C242.7,137.5,226.5,132.4,220.7,132.4z"/>
</defs>
<clipPath id="SVGID_00000052821208355507313960000004075479453646777998_">
	<use xlink:href="#SVGID_1_"  overflow="visible"/>
</clipPath>
<path clip-path="url(#SVGID_00000052821208355507313960000004075479453646777998_)" fill="#5BCEFA" d="M-178,179l387.1-387.1
	L596.2,179L209.1,566.1L-178,179z"/>
<path clip-path="url(#SVGID_00000052821208355507313960000004075479453646777998_)" fill="#F5A9B8" d="M-100.6,256.4l387.1-387.1
	l232.3,232.3L131.7,488.7L-100.6,256.4z"/>
<path clip-path="url(#SVGID_00000052821208355507313960000004075479453646777998_)" fill="#AAAAAA" d="M-23.2,333.9L363.9-53.3
	l77.4,77.4L54.2,411.3L-23.2,333.9z"/>
</svg>
